<svg xmlns="http://www.w3.org/2000/svg" viewBox="0 0 1600 900" role="img" aria-labelledby="title desc">
  <title id="title">Industrial road infrastructure at dusk</title>
  <desc id="desc">Dark industrial road, refinery silhouettes, storage tanks, and construction atmosphere.</desc>
  <defs>
    <linearGradient id="sky" x1="0" x2="1" y1="0" y2="1">
      <stop offset="0" stop-color="#050505"/>
      <stop offset=".55" stop-color="#171717"/>
      <stop offset="1" stop-color="#3A2416"/>
    </linearGradient>
    <radialGradient id="glow" cx=".72" cy=".32" r=".48">
      <stop offset="0" stop-color="#C8641C" stop-opacity=".36"/>
      <stop offset="1" stop-color="#C8641C" stop-opacity="0"/>
    </radialGradient>
  </defs>
  <rect width="1600" height="900" fill="url(#sky)"/>
  <rect width="1600" height="900" fill="url(#glow)"/>
  <g opacity=".18" stroke="#F5F3EF" stroke-width="1">
    <path d="M0 140h1600M0 280h1600M0 420h1600"/>
    <path d="M170 0v900M340 0v900M510 0v900M680 0v900M850 0v900M1020 0v900M1190 0v900M1360 0v900"/>
  </g>
  <g fill="#0A0A0A">
    <rect x="1030" y="220" width="92" height="360"/>
    <rect x="1150" y="170" width="70" height="410"/>
    <rect x="1262" y="260" width="120" height="320"/>
    <path d="M900 580h650v75H900z"/>
    <path d="M960 260h110l40 320H920z"/>
    <path d="M1230 350h130l54 230h-238z"/>
  </g>
  <g fill="none" stroke="#525252" stroke-width="14" opacity=".75">
    <path d="M1115 260h150M1120 330h170M1125 400h210"/>
    <path d="M1030 220c120 70 250 70 390 0"/>
  </g>
  <path d="M0 675c240-95 430-98 650-22 240 82 430 52 950-158v405H0z" fill="#080808"/>
  <path d="M80 780c250-120 470-118 690-40 210 75 420 37 690-84" fill="none" stroke="#C8641C" stroke-width="16" stroke-linecap="round"/>
  <path d="M130 830c250-105 465-102 665-35 190 64 370 39 590-56" fill="none" stroke="#F5F3EF" stroke-width="5" opacity=".5" stroke-linecap="round"/>
</svg>
